<?xml version="1.0" encoding="UTF-8"?>
<svg width="1160px" height="144px" viewBox="0 0 1160 144" version="1.1" xmlns="http://www.w3.org/2000/svg" xmlns:xlink="http://www.w3.org/1999/xlink">
    <!-- Generator: Sketch 54.1 (76490) - https://sketchapp.com -->
    <title>iconandname</title>
    <desc>Created with Sketch.</desc>
    <g id="Page-1" stroke="none" stroke-width="1" fill="none" fill-rule="evenodd">
        <g id="iconandname" fill-rule="nonzero">
            <g id="Group" transform="translate(0.000000, 2.000000)">
                <path d="M76.8,93.66 C74.78,93.66 72.76,92.89 71.22,91.35 C68.14,88.27 68.14,83.27 71.22,80.19 L93.76,57.65 C98.33,53.08 100.85,47 100.85,40.54 C100.85,34.08 98.33,28 93.76,23.43 C89.19,18.86 83.11,16.34 76.65,16.34 C70.19,16.34 64.11,18.86 59.54,23.43 L23.93,59.04 C20.85,62.12 15.85,62.12 12.77,59.04 C9.69,55.96 9.69,50.96 12.77,47.88 L48.38,12.27 C55.93,4.72 65.97,0.56 76.65,0.56 C87.33,0.56 97.37,4.72 104.92,12.27 C112.47,19.82 116.63,29.86 116.63,40.54 C116.63,51.22 112.47,61.26 104.92,68.81 L82.38,91.35 C80.84,92.89 78.82,93.66 76.8,93.66 Z" id="Path" fill="#FFFFFF"></path>
                <rect id="Rectangle" fill="#FFFFFF" transform="translate(23.401186, 48.400935) rotate(-45.000000) translate(-23.401186, -48.400935) " x="-1.78357197" y="40.5110112" width="50.3695169" height="15.7798487"></rect>
                <g transform="translate(22.000000, 32.000000)" fill="#4590E4" id="Path">
                    <polygon points="57.51 108.16 0.7 51.34 36.32 15.72 47.48 26.87 23.02 51.34 57.51 85.84 92.28 51.08 103.44 62.24"></polygon>
                    <path d="M19.2,51.88 C17.18,51.88 15.16,51.11 13.62,49.57 C10.54,46.49 10.54,41.49 13.62,38.41 L49.23,2.8 C52.31,-0.28 57.31,-0.28 60.39,2.8 C63.47,5.88 63.47,10.88 60.39,13.96 L24.78,49.57 C23.24,51.11 21.22,51.88 19.2,51.88 Z"></path>
                    <polygon points="87.67 46.89 107.33 66.55 114.54 39.68"></polygon>
                </g>
            </g>
            <g id="Group" transform="translate(187.000000, 0.000000)">
                <path d="M0.45,2.73 L58.44,2.73 C99.8,2.73 117.42,18.17 117.42,50.82 C117.42,83.28 98.62,98.12 58.84,98.12 L26.38,98.12 L26.38,141.26 L0.45,141.26 L0.45,2.73 Z M26.37,24.9 L26.37,78.34 L57.84,78.34 C80.2,78.34 90.69,70.03 90.69,51.82 C90.69,33.61 80.79,24.9 57.44,24.9 L26.37,24.9 Z" id="Shape" fill="#FFFFFF"></path>
                <path d="M215.57,0.75 C242.29,0.75 266.04,14.21 279.3,36.18 C285.83,47.06 289.2,59.14 289.2,72 C289.2,97.93 275.15,121.08 252.39,133.75 C241.11,140.08 228.84,143.25 215.58,143.25 C188.86,143.25 165.11,129.79 151.85,107.82 C145.32,96.94 142.15,84.86 142.15,72 C142.15,46.07 156.2,22.92 178.56,10.25 C189.85,3.92 202.31,0.75 215.57,0.75 Z M182.33,38.75 C173.42,47.85 168.87,58.94 168.87,72 C168.87,85.06 173.42,96.14 182.33,105.45 C191.24,114.55 202.32,119.11 215.58,119.11 C228.84,119.11 239.92,114.56 248.83,105.45 C257.74,96.15 262.29,85.07 262.29,72 C262.29,46.07 242.1,24.9 215.58,24.9 C202.31,24.9 191.23,29.45 182.33,38.75 Z" id="Shape" fill="#FFFFFF"></path>
                <polygon id="Path" fill="#FFFFFF" points="345.4 118.11 418.62 118.11 418.62 141.27 319.47 141.27 319.47 2.73 345.4 2.73"></polygon>
                <polygon id="Path" fill="#FFFFFF" points="474.44 118.11 547.66 118.11 547.66 141.27 448.51 141.27 448.51 2.73 474.44 2.73"></polygon>
                <polygon id="Path" fill="#FFFFFF" points="621.1 91.99 621.1 141.27 595.37 141.27 595.37 92.39 537.98 2.74 568.85 2.74 608.43 64.88 648.01 2.74 678.49 2.74"></polygon>
                <polygon id="Path" fill="#4590E4" points="809.9 25.89 727.77 25.89 727.77 60.13 803.96 60.13 803.96 82.3 727.77 82.3 727.77 118.12 811.48 118.12 811.48 141.28 701.84 141.28 701.84 2.73 809.9 2.73 809.9 25.89"></polygon>
                <polygon id="Path" fill="#4590E4" points="920.34 70.61 972.98 141.26 941.31 141.26 903.71 91.19 866.11 141.26 835.04 141.26 887.49 70.61 837.22 2.73 868.69 2.73 904.31 49.83 939.73 2.73 970.8 2.73"></polygon>
            </g>
        </g>
    </g>
</svg>