<?xml version="1.0" encoding="UTF-8"?>
<svg width="137px" height="141px" viewBox="0 0 137 141" version="1.1" xmlns="http://www.w3.org/2000/svg" xmlns:xlink="http://www.w3.org/1999/xlink">
    <!-- Generator: Sketch 54.1 (76490) - https://sketchapp.com -->
    <title>icon</title>
    <desc>Created with Sketch.</desc>
    <g id="Page-1" stroke="none" stroke-width="1" fill="none" fill-rule="evenodd">
        <g id="icon" fill-rule="nonzero">
            <path d="M76.8,93.66 C74.78,93.66 72.76,92.89 71.22,91.35 C68.14,88.27 68.14,83.27 71.22,80.19 L93.76,57.65 C98.33,53.08 100.85,47 100.85,40.54 C100.85,34.08 98.33,28 93.76,23.43 C89.19,18.86 83.11,16.34 76.65,16.34 C70.19,16.34 64.11,18.86 59.54,23.43 L23.93,59.04 C20.85,62.12 15.85,62.12 12.77,59.04 C9.69,55.96 9.69,50.96 12.77,47.88 L48.38,12.27 C55.93,4.72 65.97,0.56 76.65,0.56 C87.33,0.56 97.37,4.72 104.92,12.27 C112.47,19.82 116.63,29.86 116.63,40.54 C116.63,51.22 112.47,61.26 104.92,68.81 L82.38,91.35 C80.84,92.89 78.82,93.66 76.8,93.66 Z" id="Path" fill="#2491EB"></path>
            <rect id="Rectangle" fill="#2491EB" transform="translate(23.401186, 48.400935) rotate(-45.000000) translate(-23.401186, -48.400935) " x="-1.78357197" y="40.5110112" width="50.3695169" height="15.7798487"></rect>
            <g id="Group" transform="translate(22.000000, 32.000000)" fill="#104378">
                <polygon id="Path" points="57.51 108.16 0.7 51.34 36.32 15.72 47.48 26.87 23.02 51.34 57.51 85.84 92.28 51.08 103.44 62.24"></polygon>
                <path d="M19.2,51.88 C17.18,51.88 15.16,51.11 13.62,49.57 C10.54,46.49 10.54,41.49 13.62,38.41 L49.23,2.8 C52.31,-0.28 57.31,-0.28 60.39,2.8 C63.47,5.88 63.47,10.88 60.39,13.96 L24.78,49.57 C23.24,51.11 21.22,51.88 19.2,51.88 Z" id="Path"></path>
                <polygon id="Path" points="87.67 46.89 107.33 66.55 114.54 39.68"></polygon>
            </g>
        </g>
    </g>
</svg>