<?xml version="1.0" encoding="utf-8"?>
<!-- Generator: Adobe Illustrator 23.0.2, SVG Export Plug-In . SVG Version: 6.00 Build 0)  -->
<svg version="1.1" id="Layer_1" xmlns="http://www.w3.org/2000/svg" xmlns:xlink="http://www.w3.org/1999/xlink" x="0px" y="0px"
	 viewBox="0 0 1600 1000" style="enable-background:new 0 0 1600 1000;" xml:space="preserve">
<style type="text/css">
	.st0{fill:#104378;}
	.st1{fill:#333333;}
	.st2{fill:#2491EB;}
	.st3{fill:#FFFFFF;}
</style>
<g>
	<g>
		<path class="st2" d="M296.8,523.66c-2.02,0-4.04-0.77-5.58-2.31c-3.08-3.08-3.08-8.08,0-11.16l22.54-22.54
			c4.57-4.57,7.09-10.65,7.09-17.11c0-6.46-2.52-12.54-7.09-17.11c-4.57-4.57-10.65-7.09-17.11-7.09c-6.46,0-12.54,2.52-17.11,7.09
			l-35.61,35.61c-3.08,3.08-8.08,3.08-11.16,0c-3.08-3.08-3.08-8.08,0-11.16l35.61-35.61c7.55-7.55,17.59-11.71,28.27-11.71
			c10.68,0,20.72,4.16,28.27,11.71c7.55,7.55,11.71,17.59,11.71,28.27s-4.16,20.72-11.71,28.27l-22.54,22.54
			C300.84,522.89,298.82,523.66,296.8,523.66z"/>
		
			<rect x="218.22" y="470.52" transform="matrix(0.7071 -0.7071 0.7071 0.7071 -266.9942 312.2289)" class="st2" width="50.37" height="15.78"/>
		<g>
			<polygon class="st0" points="299.51,570.16 242.7,513.34 278.32,477.72 289.48,488.87 265.02,513.34 299.51,547.84 
				334.28,513.08 345.44,524.24 			"/>
			<path class="st0" d="M261.2,513.88c-2.02,0-4.04-0.77-5.58-2.31c-3.08-3.08-3.08-8.08,0-11.16l35.61-35.61
				c3.08-3.08,8.08-3.08,11.16,0c3.08,3.08,3.08,8.08,0,11.16l-35.61,35.61C265.24,513.11,263.22,513.88,261.2,513.88z"/>
			<polygon class="st0" points="329.67,508.89 349.33,528.55 356.54,501.68 			"/>
		</g>
	</g>
	<g>
		<path class="st2" d="M407.45,430.73h57.99c41.36,0,58.98,15.44,58.98,48.09c0,32.46-18.8,47.3-58.58,47.3h-32.46v43.14h-25.93
			V430.73z M433.37,452.9v53.44h31.47c22.36,0,32.85-8.31,32.85-26.52c0-18.21-9.9-26.92-33.25-26.92H433.37z"/>
		<path class="st2" d="M622.57,428.75c26.72,0,50.47,13.46,63.73,35.43c6.53,10.88,9.9,22.96,9.9,35.82
			c0,25.93-14.05,49.08-36.81,61.75c-11.28,6.33-23.55,9.5-36.81,9.5c-26.72,0-50.47-13.46-63.73-35.43
			c-6.53-10.88-9.7-22.96-9.7-35.82c0-25.93,14.05-49.08,36.41-61.75C596.85,431.92,609.31,428.75,622.57,428.75z M589.33,466.75
			c-8.91,9.1-13.46,20.19-13.46,33.25c0,13.06,4.55,24.14,13.46,33.45c8.91,9.1,19.99,13.66,33.25,13.66s24.34-4.55,33.25-13.66
			c8.91-9.3,13.46-20.38,13.46-33.45c0-25.93-20.19-47.1-46.71-47.1C609.31,452.9,598.23,457.45,589.33,466.75z"/>
		<path class="st2" d="M752.4,546.11h73.22v23.16h-99.15V430.73h25.93V546.11z"/>
		<path class="st2" d="M881.44,546.11h73.22v23.16h-99.15V430.73h25.93V546.11z"/>
		<path class="st2" d="M1028.1,519.99v49.28h-25.73v-48.88l-57.39-89.65h30.87l39.58,62.14l39.58-62.14h30.48L1028.1,519.99z"/>
		<path class="st0" d="M1216.9,453.89h-82.13v34.24h76.19v22.17h-76.19v35.82h83.71v23.16h-109.64V430.73h108.06V453.89z"/>
		<path class="st0" d="M1327.34,498.61l52.64,70.65h-31.67l-37.6-50.07l-37.6,50.07h-31.07l52.45-70.65l-50.27-67.88h31.47
			l35.62,47.1l35.42-47.1h31.07L1327.34,498.61z"/>
	</g>
</g>
</svg>
